<svg data-v-423bf9ae="" xmlns="http://www.w3.org/2000/svg" viewBox="0 0 487 90" class="iconLeft"><!----><!----><!----><g data-v-423bf9ae="" id="97b8dd73-928c-4b62-88f2-d01467a8abd2" fill="white" transform="matrix(6.329113592966793,0,0,6.329113592966793,101.40422891364506,-16.898730836604642)"><path d="M2.83 14.35L2.83 9.52C2.83 8.74 3.50 8.34 4.19 8.34C4.98 8.34 5.36 8.86 5.36 9.91L5.36 14.35L7.15 14.35L7.15 9.52C7.15 8.74 7.81 8.34 8.51 8.34C9.31 8.34 9.69 8.86 9.69 9.91L9.69 14.35L11.48 14.35L11.48 9.73C11.48 7.91 10.67 6.87 9.24 6.87C8.08 6.87 7.27 7.53 7 8.34L6.97 8.34C6.62 7.36 5.85 6.87 4.86 6.87C3.77 6.87 3.18 7.49 2.90 8.26L2.83 8.26L2.83 7.04L1.04 7.04L1.04 14.35ZM16.42 14.52C17.78 14.52 18.84 14 19.45 13.17L18.48 12.10C18.03 12.67 17.50 13.09 16.62 13.09C15.44 13.09 14.84 12.38 14.84 11.33L14.84 11.14L19.70 11.14L19.70 10.56C19.70 8.55 18.65 6.87 16.37 6.87C14.22 6.87 12.98 8.37 12.98 10.68C12.98 13.02 14.27 14.52 16.42 14.52ZM16.39 8.22C17.32 8.22 17.84 8.90 17.84 9.91L17.84 10.04L14.84 10.04L14.84 9.93C14.84 8.92 15.46 8.22 16.39 8.22ZM23.07 14.35L23.07 9.52C23.07 8.74 23.74 8.34 24.43 8.34C25.23 8.34 25.61 8.86 25.61 9.91L25.61 14.35L27.40 14.35L27.40 9.52C27.40 8.74 28.06 8.34 28.76 8.34C29.55 8.34 29.93 8.86 29.93 9.91L29.93 14.35L31.72 14.35L31.72 9.73C31.72 7.91 30.91 6.87 29.48 6.87C28.32 6.87 27.51 7.53 27.24 8.34L27.22 8.34C26.87 7.36 26.10 6.87 25.10 6.87C24.01 6.87 23.42 7.49 23.14 8.26L23.07 8.26L23.07 7.04L21.28 7.04L21.28 14.35ZM36.67 14.52C38.02 14.52 39.09 14 39.69 13.17L38.72 12.10C38.28 12.67 37.74 13.09 36.86 13.09C35.69 13.09 35.08 12.38 35.08 11.33L35.08 11.14L39.94 11.14L39.94 10.56C39.94 8.55 38.89 6.87 36.61 6.87C34.47 6.87 33.22 8.37 33.22 10.68C33.22 13.02 34.51 14.52 36.67 14.52ZM36.64 8.22C37.56 8.22 38.08 8.90 38.08 9.91L38.08 10.04L35.08 10.04L35.08 9.93C35.08 8.92 35.70 8.22 36.64 8.22ZM43.81 14.35L45.09 14.35L45.09 12.92L43.71 12.92L43.71 8.47L45.21 8.47L45.21 7.04L43.71 7.04L43.71 5.04L42.10 5.04L42.10 6.29C42.10 6.79 41.93 7.04 41.40 7.04L40.84 7.04L40.84 8.47L41.92 8.47L41.92 12.49C41.92 13.68 42.57 14.35 43.81 14.35ZM48.57 14.52C49.66 14.52 50.46 14.03 50.69 13.09L50.78 13.09C50.89 13.85 51.37 14.35 52.14 14.35L53.13 14.35L53.13 12.92L52.40 12.92L52.40 9.48C52.40 7.81 51.35 6.87 49.38 6.87C47.91 6.87 47.05 7.43 46.52 8.27L47.59 9.23C47.94 8.72 48.41 8.30 49.25 8.30C50.20 8.30 50.61 8.78 50.61 9.59L50.61 10.12L49.36 10.12C47.38 10.12 46.24 10.86 46.24 12.36C46.24 13.66 47.08 14.52 48.57 14.52ZM49.17 13.22C48.47 13.22 48.06 12.92 48.06 12.33L48.06 12.10C48.06 11.52 48.52 11.20 49.46 11.20L50.61 11.20L50.61 12.17C50.61 12.85 49.97 13.22 49.17 13.22ZM57.48 14.52C59.58 14.52 60.89 13.03 60.89 10.68C60.89 8.34 59.58 6.87 57.48 6.87C55.40 6.87 54.10 8.34 54.10 10.68C54.10 13.03 55.40 14.52 57.48 14.52ZM57.48 13.08C56.56 13.08 55.97 12.47 55.97 11.37L55.97 10.01C55.97 8.92 56.56 8.32 57.48 8.32C58.42 8.32 59.01 8.92 59.01 10.01L59.01 11.37C59.01 12.47 58.42 13.08 57.48 13.08Z"></path></g><!----><g data-v-423bf9ae="" id="7e5da0f7-d97a-4b1c-a84c-7c4b67da99f2" transform="matrix(1.0062270775129256,0,0,1.0062270775129256,-5.030552539182082,-4.0305064537810225)" stroke="none" fill="white"><path d="M23.815 94.244c.136-.05.246-.124.246-.165 0-.042-.533-.243-1.185-.447-2.52-.788-3.18-1.289-5.478-4.156-1.367-1.705-2.91-3.312-3.113-3.244-.132.045-.107.281.162 1.5.309 1.4.774 2.996 1.342 4.604.72 2.033.727 1.833-.07 1.833-.648 0-.674 0-.768-.246-.164-.415-.686-2.27-1.403-4.987-1.688-6.396-2.892-9.285-5.067-12.153-.335-.443-.61-.85-.61-.906 0-.205-.37-3.083-.546-4.25-.1-.663-.431-2.414-.735-3.89l-.553-2.684-.024-12.908-.024-12.91.27-.268c.393-.394.613-.324.917.291.447.903.554 1.956.547 5.356-.005 2.509-.052 3.586-.29 6.62-.32 4.063-.442 6.708-.31 6.708.13 0 .619-.543.783-.868.183-.363.185-1.332.009-4.097-.313-4.923-.18-5.83 1.366-9.302.923-2.074 1.217-2.987 1.143-3.556-.063-.49-.358-1.23-.49-1.23-.052 0-.1.393-.115.952-.024.926-.032.958-.275 1.139-.232.173-.268.176-.492.05-.24-.137-.242-.147-.234-1.072.011-1.237.172-1.93 1.08-4.641.895-2.672 1.155-3.746 1.289-5.328.155-1.839.21-1.936.543-.962.167.49.206.793.206 1.61 0 .554.028 1.006.062 1.006.077 0 2.653-2.718 4.246-4.48 2.43-2.687 5.058-5.79 8.4-9.916 3.145-3.884 4.9-5.474 7.317-6.629 1.07-.511 1.907-.723 3.863-.978 1.94-.252 2.585-.443 4.229-1.247.773-.378 1.628-.775 1.898-.88.98-.385 3.075-.82 6.128-1.272 2.216-.33 4.073-.656 5.137-.906 1.585-.37 2.168-.434 4.037-.436 1.82 0 1.846.001 2.572.267.404.147 1.247.392 1.873.545 1.283.313 1.79.509 2.884 1.112 3.215 1.772 5.948 4.338 10.288 9.658a65.364 65.364 0 0 0 2.983 3.354c3.193 3.31 3.53 3.942 4.396 8.277.445 2.222.807 3.361 1.564 4.918.671 1.382 1.16 2.189 3.31 5.456 3.422 5.2 4.14 6.918 4.603 11.003.256 2.261.334 4.838.295 9.66l-.04 4.741-.28 1.834c-.429 2.79-.373 4.67.17 5.738.25.493.418.712 1.05 1.36l.51.524V78.203l-.242.357c-.132.197-.501 1.124-.82 2.06-.639 1.878-1.357 3.578-2.738 6.483-1.24 2.605-1.904 4.18-2.416 5.725l-.43 1.297-.785.026c-.432.015-.836 0-.9-.018-.083-.033-.008-.34.287-1.177.22-.624.621-1.964.893-2.98 1.164-4.354 1.588-5.436 3.143-8.02 1.064-1.768 1.345-2.338 1.553-3.152.23-.9.219-1.736-.052-3.734-.373-2.753-.425-4.018-.305-7.434.148-4.202.08-6.84-.218-8.552-.535-3.069-1.113-5.129-2.992-10.669-1.388-4.09-1.643-4.917-2.693-8.729-.85-3.083-1.326-4.453-2.065-5.94-.666-1.343-1.284-2.235-2.727-3.937-1.293-1.525-1.973-2.47-2.432-3.385-.386-.768-.744-1.908-.744-2.365 0-.198.027-.215.272-.166.358.072.986.51 1.333.93.153.184.484.737.737 1.23.626 1.22 1.097 1.95 1.467 2.275.602.53.607.31.026-1.245-.471-1.26-.984-2.134-1.717-2.92-.686-.736-1.554-1.24-2.304-1.34-.24-.032-.47-.103-.512-.159-.04-.055-.124-.362-.185-.682-.202-1.05-.621-1.803-1.953-3.509-.413-.528-.81-1.101-.881-1.274-.073-.173-.173-.727-.225-1.231-.05-.505-.139-1.073-.195-1.263-.312-1.057-3.986-3.985-8.234-6.563-2.892-1.755-4.341-2.166-7.253-2.055-1.736.066-2.993.28-6.138 1.047-2.95.72-3.535.82-6.262 1.07-3.372.309-3.774.44-5.859 1.924-1.934 1.376-2.554 1.624-4.696 1.878-1.462.173-2.117.33-2.717.653-.688.37-1.87 1.604-3.035 3.17a47.851 47.851 0 0 1-2.097 2.595c-.578.654-2.518 2.899-4.311 4.99-4.753 5.542-6.694 7.727-8.757 9.856l-.927.956.062 1.415c.1 2.325-.174 3.622-1.505 7.102-1.466 3.835-1.545 4.199-1.979 9.071-.243 2.73-.335 6.072-.232 8.413.116 2.626.12 2.64.997 4.513.288.615.586 1.36.662 1.655.077.299.176 1.29.224 2.236.115 2.266.352 3.181 1.721 6.62 1.417 3.557 1.877 5.06 2.17 7.095.081.557.206 1.179.277 1.381.237.673 2.193 3.106 3.769 4.69 2.133 2.143 3.644 3.257 6.778 4.996.689.382 1.332.749 1.429.815.15.101-.067.119-1.476.113-1.217 0-1.588-.032-1.407-.097zM11.846 78.762c-.312-.948-.991-3.375-1.508-5.396-1.287-5.033-2.312-8.323-2.625-8.426-.132-.042-.107.28.17 2.258.578 4.102 1.596 8.367 2.491 10.432.501 1.154 1.653 2.853 1.935 2.853.066 0-.108-.65-.463-1.721zm78.32-29.133c0-1.3-.379-2.974-1.065-4.714-.46-1.165-2.106-4.58-2.366-4.908-.138-.173-.142-.17-.145.103-.003.383.565 2.618.95 3.73.532 1.54 2.456 6.32 2.543 6.32.045 0 .082-.239.082-.53zM55.681 80.598c-2.78-.086-5.084-.714-6.753-1.841-2.823-1.907-4.41-4.756-4.034-7.24.145-.96.377-1.5.644-1.5.303 0 1 .49 1.304.917.394.552.5.784.965 2.125.447 1.284.695 1.782 1.142 2.292.58.661 2.127 1.52 3.422 1.9 2.55.749 6.519.683 8.9-.148 1.38-.482 2.652-1.403 3.037-2.2.284-.587.333-2.35.142-5.109-.09-1.297-.141-2.886-.123-3.786l.03-1.55.288-.257c.394-.352.803-.415 1.294-.198.322.143.444.27.682.718.691 1.296.803 2.571.67 7.596l-.077 2.88-.432.631c-1.433 2.098-3.453 3.734-5.363 4.345-1.018.325-3.354.498-5.738.425zM27.04 57.312c-1.872-.232-3.73-1.001-5.363-2.218-.721-.538-2.167-1.98-2.189-2.182a40.51 40.51 0 0 1 .005-1.366c.022-1.574-.125-2.174-.975-3.98-.9-1.913-1.002-2.262-1.052-3.578-.113-2.978 1.064-5.78 3.34-7.957 4.694-4.487 12.644-5.11 18-1.41.37.257.973.748 1.338 1.092.595.562.684.691.865 1.253.197.613.211.63.704.87.881.426 1.312 1.274 1.312 2.583 0 3.328-1.696 6.487-6.292 11.723-2.061 2.348-3.743 3.835-5.048 4.467-1.206.582-3.193.883-4.646.703zm2.613-1.605c.766-.246 1.58-.648 2.057-1.016 1.499-1.158 3.826-3.453 5.36-5.287 2.47-2.952 3.814-5.092 4.132-6.581.285-1.333-.064-4.382-.549-4.806-.372-.325-.606-.336-1.121-.056-.255.139-.483.304-.507.367-.055.144.11.398.694 1.064.502.572.802 1.085.802 1.372 0 .246-.107.231-.735-.104-.757-.403-1.706-1.325-2.957-2.872-1.418-1.752-1.857-2.225-2.649-2.856-1.389-1.105-2.733-1.589-4.417-1.589-1.676 0-3.035.372-4.499 1.231-1.256.739-2.735 1.975-3.805 3.181-.74.835-.779.77.577.98 1.958.305 3.186 1.413 3.482 3.143.193 1.124-.126 2.165-.936 3.05-.75.82-1.82 1.213-3.685 1.35l-.705.053.051 1.578c.056 1.743.22 2.658.679 3.805.852 2.128 2.45 3.481 4.822 4.083.977.248 3 .201 3.909-.091zm39.94-8.112c-3.112-.198-6.508-.962-8.631-1.943-2.39-1.104-4.294-3.171-6.774-7.352-1.212-2.043-1.46-3.5-.962-5.647.412-1.773 1.165-2.872 3.857-5.632 2.82-2.892 3.509-3.862 4.328-6.09.324-.88.35-.92.66-1.002 1.288-.344 3.686-.35 4.972-.011 1.005.263 2.202.865 3.042 1.53 2.541 2.008 6.94 7.257 8.931 10.657a18.28 18.28 0 0 1 1.996 4.86c.336 1.33.397 3.463.13 4.519-.595 2.356-2.337 4.417-4.745 5.615l-1.028.512-2.642.01c-1.453 0-2.864-.01-3.134-.023zm4.785-1.267c2.377-.509 3.914-1.573 4.739-3.28.499-1.033.62-1.627.622-3.04.003-2.706-.962-5.608-2.765-8.32-.66-.993-1.775-2.37-1.919-2.37-.042 0-.093.513-.111 1.14-.055 1.824-.22 1.99-1.97 1.99-2.988 0-4.518-.378-5.597-1.382l-.505-.47-.034-1.154c-.041-1.392.105-2.206.566-3.142.478-.971 1.158-1.36 2.633-1.505.748-.074.76-.106.344-.942-.424-.855-1.298-1.69-2.232-2.136-.771-.367-1.629-.629-2.06-.629-.173 0-.415.15-.809.503-.585.522-1.684 1.412-3.962 3.21-3.98 3.141-5.78 5.273-6.572 7.782-.25.796-.343 2.32-.18 3.006.39 1.658 2.44 5.025 4.024 6.61 1.203 1.204 2.612 2.074 4.562 2.818 1.668.636 4.095 1.199 5.949 1.38a53.75 53.75 0 0 1 1.252.133c.675.094 3.251-.036 4.025-.202z"></path></g><!----></svg>